<?xml version="1.0" encoding="utf-8"?>
<svg xmlns="http://www.w3.org/2000/svg" xmlns:xlink="http://www.w3.org/1999/xlink" style="margin: auto; background: none; display: block; shape-rendering: auto;" width="200px" height="200px" viewBox="0 0 100 100" preserveAspectRatio="xMidYMid">
<g transform="translate(50 50)">
<g>
<animateTransform attributeName="transform" type="rotate" values="0;45" keyTimes="0;1" dur="0.7042253521126761s" repeatCount="indefinite"></animateTransform><path d="M28.01338965566288 -7.500000000000001 L38.01338965566288 -7.500000000000001 L38.01338965566288 7.500000000000001 L28.01338965566288 7.500000000000001 A29 29 0 0 1 25.111758648439412 14.5051569306412 L25.111758648439412 14.5051569306412 L32.18282646030489 21.576224742506675 L21.576224742506675 32.18282646030488 L14.5051569306412 25.11175864843941 A29 29 0 0 1 7.500000000000001 28.01338965566288 L7.500000000000001 28.01338965566288 L7.500000000000002 38.01338965566288 L-7.4999999999999964 38.01338965566288 L-7.499999999999997 28.01338965566288 A29 29 0 0 1 -14.505156930641194 25.111758648439416 L-14.505156930641194 25.111758648439416 L-21.576224742506668 32.182826460304895 L-32.18282646030489 21.576224742506675 L-25.111758648439412 14.505156930641197 A29 29 0 0 1 -28.013389655662877 7.500000000000009 L-28.013389655662877 7.500000000000009 L-38.01338965566288 7.50000000000001 L-38.01338965566288 -7.500000000000001 L-28.01338965566288 -7.500000000000002 A29 29 0 0 1 -25.111758648439416 -14.50515693064119 L-25.111758648439416 -14.50515693064119 L-32.182826460304895 -21.576224742506664 L-21.576224742506675 -32.18282646030489 L-14.5051569306412 -25.111758648439412 A29 29 0 0 1 -7.50000000000001 -28.013389655662877 L-7.50000000000001 -28.013389655662877 L-7.5000000000000115 -38.01338965566288 L7.499999999999997 -38.01338965566288 L7.499999999999999 -28.01338965566288 A29 29 0 0 1 14.50515693064119 -25.11175864843942 L14.50515693064119 -25.11175864843942 L21.576224742506664 -32.182826460304895 L32.18282646030489 -21.576224742506675 L25.111758648439412 -14.5051569306412 A29 29 0 0 1 28.013389655662877 -7.5000000000000115 M0 -17A17 17 0 1 0 0 17 A17 17 0 1 0 0 -17" fill="#767676"></path></g></g>
<!-- [ldio] generated by https://loading.io/ --></svg>